<?xml version="1.0" standalone="no"?>
<!DOCTYPE svg PUBLIC "-//W3C//DTD SVG 20010904//EN"
 "http://www.w3.org/TR/2001/REC-SVG-20010904/DTD/svg10.dtd">
<svg version="1.0" xmlns="http://www.w3.org/2000/svg"
 width="1024.000000pt" height="1024.000000pt" viewBox="0 0 1024.000000 1024.000000"
 preserveAspectRatio="xMidYMid meet">

<g transform="translate(0.000000,1024.000000) scale(0.100000,-0.100000)"
fill="#000000" stroke="none">
<path d="M5040 9438 c-227 -146 -632 -355 -1090 -563 -260 -118 -439 -207
-580 -288 -821 -472 -1320 -1172 -1436 -2012 -11 -84 -17 -225 -21 -470 l-5
-350 -184 -3 -184 -2 0 -1280 0 -1280 185 0 185 0 0 -1105 0 -1105 3210 0
3210 0 0 1105 0 1105 190 0 190 0 0 1280 0 1280 -185 0 -185 0 0 248 c-1 626
-62 943 -264 1357 -131 267 -303 501 -537 731 -308 302 -632 512 -1164 754
-602 275 -832 390 -1109 556 -77 46 -145 84 -150 84 -6 0 -40 -19 -76 -42z
m223 -299 c153 -88 438 -236 607 -314 58 -26 231 -106 385 -177 154 -70 339
-160 410 -199 165 -90 380 -232 515 -339 122 -97 330 -302 414 -409 271 -341
435 -720 503 -1156 11 -75 16 -216 20 -556 l5 -457 169 4 169 3 0 -75 0 -74
-130 0 -130 0 -82 61 c-46 34 -98 69 -115 77 l-33 16 0 105 c2 369 -10 776
-25 881 -47 339 -184 681 -387 967 -201 284 -536 575 -888 773 -137 77 -335
174 -570 280 -262 118 -691 328 -845 415 -66 37 -124 68 -130 68 -5 0 -64 -31
-130 -68 -188 -106 -500 -259 -921 -450 -570 -260 -840 -432 -1126 -717 -339
-339 -551 -743 -639 -1223 -21 -110 -23 -158 -27 -597 -2 -263 -7 -478 -12
-478 -4 0 -40 -25 -79 -55 l-71 -55 -165 0 -165 0 -1 50 c-1 28 -2 60 -2 72
-1 22 -1 22 170 22 l171 -1 5 471 c5 502 8 549 62 771 104 435 335 828 686
1171 132 129 218 198 384 310 230 155 400 245 850 449 389 177 837 405 965
491 19 13 36 24 38 24 2 0 68 -37 145 -81z m-75 -735 c8 -15 37 -28 115 -48
57 -15 120 -29 141 -33 20 -3 34 -9 29 -13 -4 -4 -54 -22 -110 -39 -138 -42
-180 -81 -218 -199 l-27 -84 -30 89 c-41 122 -71 151 -199 194 -54 19 -99 36
-99 39 0 3 52 19 116 34 64 16 124 36 133 45 13 14 52 102 76 176 5 15 14 0
34 -60 15 -44 32 -89 39 -101z m23 -735 c-14 -58 -14 -191 0 -265 17 -91 49
-147 176 -305 141 -175 176 -231 215 -344 72 -209 31 -446 -102 -598 -54 -61
-173 -140 -253 -166 -62 -21 -198 -41 -267 -40 -38 0 -42 -2 60 39 81 33 156
86 235 165 123 122 154 217 129 386 -7 48 -21 105 -30 126 l-17 38 -8 -63
c-22 -180 -118 -325 -257 -390 -49 -23 -70 -27 -147 -27 -74 0 -98 4 -137 23
-210 104 -295 379 -196 632 21 54 82 162 116 207 17 22 17 22 14 -26 -8 -113
45 -247 128 -325 95 -89 215 -122 274 -75 50 40 24 124 -81 264 -42 55 -87
123 -100 152 -60 130 -47 279 37 405 26 40 211 237 218 233 1 -1 -2 -22 -7
-46z m-2264 -2434 c29 -104 107 -388 173 -630 66 -242 129 -462 140 -488 11
-27 35 -70 55 -97 19 -26 35 -50 35 -54 0 -3 -113 -6 -250 -6 l-251 0 31 38
c54 68 58 104 23 260 l-17 72 -213 0 -213 0 0 -23 c0 -12 -7 -54 -15 -92 -19
-89 -19 -161 0 -214 l14 -41 -195 0 -195 0 34 43 c82 101 121 216 330 977 85
308 82 287 57 360 -12 35 -17 67 -13 71 6 6 296 17 402 14 10 0 31 -58 68
-190z m3949 162 c-9 -12 -25 -39 -36 -59 -19 -36 -20 -56 -20 -626 0 -639 0
-635 55 -708 14 -18 25 -35 25 -38 0 -3 -108 -6 -240 -6 l-240 0 35 46 c66 86
66 88 63 715 -3 610 -1 580 -58 664 -11 17 -20 32 -20 35 0 3 102 4 226 2
l226 -3 -16 -22z m-3001 -22 c-64 -85 -65 -91 -65 -673 l0 -524 134 4 134 3
58 40 c32 22 83 70 113 108 29 37 55 66 57 64 5 -5 -42 -427 -48 -432 -3 -3
-193 -4 -423 -3 l-418 3 25 30 c66 79 63 43 66 665 2 311 0 584 -3 606 -3 23
-21 67 -40 98 l-34 56 240 0 239 0 -35 -45z m1309 -17 c3 -35 8 -121 12 -193
l6 -130 -56 62 c-85 94 -105 103 -220 103 l-96 0 0 -523 c0 -574 1 -584 60
-665 16 -23 30 -44 30 -47 0 -3 -106 -5 -235 -5 -129 0 -235 4 -235 8 0 5 9
17 21 28 12 10 32 40 45 66 l24 47 0 546 0 545 -77 0 c-98 0 -144 -20 -223
-96 l-60 -57 0 34 c0 19 7 99 15 179 8 80 15 148 15 153 0 4 218 7 484 7 l484
0 6 -62z m739 -110 c27 -95 107 -386 178 -647 71 -260 138 -490 149 -511 10
-20 35 -58 54 -83 l36 -47 -255 0 -255 0 35 51 c30 44 35 59 35 110 0 32 -7
92 -17 134 l-16 75 -211 -2 -210 -3 -18 -85 c-22 -109 -22 -152 2 -220 10 -30
17 -56 16 -58 -2 -1 -88 -1 -191 0 l-188 3 25 30 c48 57 91 160 146 345 65
221 262 935 262 951 0 10 -9 38 -20 64 -11 26 -20 51 -20 56 0 5 88 9 208 9
l207 0 48 -172z m1870 149 c234 -67 337 -235 307 -500 -19 -161 -83 -259 -212
-322 l-67 -32 20 -32 c10 -17 53 -91 96 -164 98 -170 159 -260 222 -329 l52
-56 -56 -7 c-65 -9 -223 1 -277 17 -64 19 -64 19 -281 420 -51 97 -52 98 -89
98 l-38 0 0 -197 c0 -188 1 -201 24 -249 13 -28 29 -55 35 -58 34 -21 -6 -26
-214 -26 -124 0 -225 2 -225 5 0 3 13 23 29 46 16 22 34 63 40 90 7 32 11 244
11 593 0 596 -1 602 -61 685 l-30 43 328 -4 c265 -4 339 -8 386 -21z m-760
-1862 c20 -10 37 -21 37 -24 0 -3 -15 -23 -33 -45 l-33 -38 -39 21 c-70 37
-141 21 -133 -30 2 -19 21 -33 94 -69 138 -68 154 -85 154 -161 0 -37 -6 -48
-44 -84 -47 -46 -76 -55 -170 -55 -48 0 -75 6 -116 28 -30 15 -56 32 -57 38
-2 6 15 25 37 43 l40 32 31 -22 c45 -32 120 -38 147 -11 36 36 19 57 -92 110
-102 49 -128 73 -142 126 -9 36 27 105 70 134 62 42 170 45 249 7z m-3222 -43
c59 -104 50 -103 106 -15 l50 78 65 -3 65 -4 -69 -105 c-38 -58 -72 -111 -75
-119 -3 -8 29 -70 71 -138 42 -68 76 -126 76 -130 0 -3 -27 -6 -59 -6 l-60 0
-51 85 c-28 47 -54 85 -58 85 -4 0 -28 -37 -53 -83 l-46 -82 -67 -3 c-36 -2
-66 -1 -66 2 0 3 24 43 53 88 30 46 64 102 77 125 l23 42 -71 120 c-40 66 -72
121 -72 123 0 2 29 1 65 0 l64 -4 32 -56z m2612 52 c26 -9 50 -20 53 -25 3 -5
-9 -27 -26 -49 l-31 -39 -42 19 c-54 25 -92 25 -117 0 -37 -37 -28 -47 91
-104 114 -54 149 -88 149 -148 0 -93 -74 -148 -201 -148 -61 0 -85 5 -127 26
-29 14 -52 31 -52 38 0 7 15 27 34 45 l34 33 38 -26 c63 -42 154 -32 154 18 0
31 -20 47 -122 94 -99 46 -121 72 -120 137 1 115 142 178 285 129z m-4163
-1089 l0 -1095 699 0 699 0 6 23 c3 12 6 38 6 57 0 75 85 201 173 257 75 47
127 53 466 53 l314 0 156 104 c146 96 245 175 298 237 l23 26 74 -72 c71 -69
163 -136 272 -198 27 -15 68 -42 92 -60 l44 -32 336 -5 337 -5 57 -27 c108
-50 206 -172 223 -277 4 -20 10 -46 15 -58 l10 -23 694 0 695 0 0 1073 c0 589
0 1082 1 1095 l0 22 245 0 245 0 0 -75 0 -75 -170 0 -170 0 0 -1100 0 -1100
-2995 1 -2995 0 0 1099 0 1100 -174 0 -173 0 -2 75 -2 75 251 0 250 0 0 -1095z
m1170 1050 l0 -45 -105 0 -105 0 0 -55 0 -55 88 0 c49 0 91 -2 93 -4 3 -3 3
-23 1 -45 l-4 -41 -89 0 -89 0 0 -57 0 -58 105 3 105 3 0 -51 0 -50 -162 2
-163 3 -3 248 -2 247 165 0 165 0 0 -45z m1197 26 c68 -32 99 -101 81 -185
-17 -83 -91 -126 -216 -126 l-63 0 2 -82 2 -83 -56 -3 -57 -3 0 251 0 250 133
0 c108 0 140 -4 174 -19z m603 1 c19 -9 45 -33 58 -52 20 -30 23 -45 20 -102
-3 -58 -8 -72 -33 -98 -15 -16 -37 -32 -47 -36 -18 -5 -6 -24 115 -181 7 -9
-7 -12 -58 -12 l-67 1 -61 84 c-51 71 -66 84 -89 84 l-28 0 0 -85 0 -85 -55 0
-55 0 0 250 0 250 133 0 c106 0 139 -4 167 -18z m652 -27 l-4 -45 -104 0 -104
0 0 -55 0 -55 95 0 95 0 0 -45 0 -45 -95 0 -95 0 0 -55 0 -54 108 -3 107 -3 0
-45 0 -45 -162 -3 -163 -2 0 250 0 250 163 0 162 0 -3 -45z"/>
<path d="M7660 7499 c0 -5 5 -7 10 -4 6 3 10 8 10 11 0 2 -4 4 -10 4 -5 0 -10
-5 -10 -11z"/>
<path d="M2140 6269 c0 -5 5 -7 10 -4 6 3 10 8 10 11 0 2 -4 4 -10 4 -5 0 -10
-5 -10 -11z"/>
<path d="M2612 4821 c-40 -136 -76 -257 -79 -269 -5 -22 -4 -22 144 -22 l150
0 -64 251 c-34 139 -63 260 -63 270 0 53 -22 -4 -88 -230z"/>
<path d="M5610 4813 c-40 -142 -75 -263 -77 -269 -3 -8 41 -12 143 -13 l146
-2 -4 28 c-7 39 -127 505 -132 510 -2 2 -36 -112 -76 -254z"/>
<path d="M7490 4950 l0 -270 53 0 c110 0 211 50 249 123 26 50 36 189 19 254
-14 52 -52 98 -101 123 -37 19 -138 40 -192 40 l-28 0 0 -270z"/>
<path d="M3985 1571 c-55 -24 -101 -80 -120 -143 -8 -28 -15 -55 -15 -60 0 -4
572 -8 1271 -8 l1271 0 -7 43 c-10 63 -53 128 -105 157 l-45 25 -1105 2
c-1053 3 -1107 2 -1145 -16z"/>
<path d="M4455 3390 l0 -70 61 0 c76 0 107 20 107 70 0 50 -31 70 -107 70
l-61 0 0 -70z"/>
<path d="M5060 3390 l0 -70 53 0 c28 0 63 6 77 13 21 11 25 20 25 57 0 37 -4
46 -25 57 -14 7 -49 13 -77 13 l-53 0 0 -70z"/>
</g>
</svg>
